<svg width="22" height="22" viewBox="0 0 22 22" fill="none" xmlns="http://www.w3.org/2000/svg">
<path d="M21.5 9.5V18C21.5 19.9761 19.9761 21.5 18 21.5H4C2.02386 21.5 0.5 19.9761 0.5 18V9.5H21.5ZM15 0.5C15.4136 0.5 15.7967 0.640485 16.0781 0.921875C16.3595 1.20326 16.5 1.58638 16.5 2V2.5H18C19.9761 2.5 21.5 4.02386 21.5 6V8.5H0.5V6C0.5 4.02386 2.02386 2.5 4 2.5H5.5V2C5.5 1.58638 5.64049 1.20326 5.92188 0.921875C6.20326 0.640485 6.58638 0.5 7 0.5C7.41362 0.5 7.79674 0.640485 8.07812 0.921875C8.35951 1.20326 8.5 1.58638 8.5 2V2.5H13.5V2C13.5 1.58638 13.6405 1.20326 13.9219 0.921875C14.2033 0.640485 14.5864 0.5 15 0.5Z" fill="white" stroke="#7C3AED"/>
</svg>
