<svg width="23" height="23" viewBox="0 0 23 23" fill="none" xmlns="http://www.w3.org/2000/svg">
<mask id="path-1-outside-1_10_332" maskUnits="userSpaceOnUse" x="0" y="0" width="23" height="23" fill="black">
<rect fill="white" width="23" height="23"/>
<path d="M10.2955 3.75482C10.243 4.06035 10.1302 4.35237 9.96367 4.61383C9.79713 4.8753 9.58017 5.10096 9.32546 5.27765C9.07074 5.45435 8.78338 5.57853 8.48015 5.64294C8.17692 5.70736 7.86389 5.71072 7.55935 5.65284C7.2548 5.59495 6.96484 5.47697 6.70639 5.30579C6.44794 5.13461 6.22618 4.91366 6.05406 4.65584C5.88194 4.39802 5.7629 4.10849 5.7039 3.80415C5.6449 3.49982 5.64712 3.18678 5.71043 2.88332C6.60002 3.42349 7.37527 3.72799 8.18319 3.83882C8.86919 3.93216 9.54878 3.88199 10.2955 3.75482ZM6.21852 1.82632C6.48557 1.51079 6.83162 1.27183 7.22128 1.13387C7.61095 0.9959 8.03026 0.963873 8.43636 1.04106C8.84246 1.11824 9.22078 1.30187 9.53265 1.57318C9.84453 1.84448 10.0788 2.19374 10.2115 2.58523C9.47528 2.71649 8.89836 2.75907 8.34128 2.68265C7.71127 2.59632 7.06261 2.35132 6.21794 1.82632M5.95835 6.24975C4.36235 6.24975 3.09884 7.22392 2.28859 8.40226C1.4725 9.59051 1 11.1311 1 12.6507C1 13.4621 1.37625 14.4036 1.64167 14.9957C1.80255 15.352 1.97769 15.7017 2.16667 16.0439V20.8331C2.16667 21.1426 2.28959 21.4393 2.50838 21.6581C2.72717 21.8769 3.02392 21.9998 3.33334 21.9998C3.64276 21.9998 3.93951 21.8769 4.1583 21.6581C4.3771 21.4393 4.50001 21.1426 4.50001 20.8331V14.1504C4.67035 12.7458 5.07051 11.4729 5.52843 10.4323L5.91168 11.9239C5.97614 12.1745 6.12214 12.3967 6.32669 12.5553C6.53125 12.7139 6.78275 12.8 7.04161 12.8H10.0417C10.3511 12.8 10.6479 12.6771 10.8667 12.4583C11.0855 12.2395 11.2084 11.9428 11.2084 11.6333C11.2084 11.3239 11.0855 11.0272 10.8667 10.8084C10.6479 10.5896 10.3511 10.4667 10.0417 10.4667H7.94636L7.08886 7.12592C7.02438 6.87512 6.87829 6.65291 6.67362 6.49428C6.46894 6.33565 6.2173 6.24962 5.95835 6.24975ZM19.0834 7.99975C19.7022 7.99975 20.2957 7.75392 20.7333 7.31633C21.1709 6.87875 21.4167 6.28525 21.4167 5.66641C21.4167 5.04757 21.1709 4.45408 20.7333 4.01649C20.2957 3.5789 19.7022 3.33307 19.0834 3.33307C18.4646 3.33307 17.8711 3.5789 17.4335 4.01649C16.9959 4.45408 16.7501 5.04757 16.7501 5.66641C16.7501 6.28525 16.9959 6.87875 17.4335 7.31633C17.8711 7.75392 18.4646 7.99975 19.0834 7.99975Z"/>
</mask>
<path d="M10.2955 3.75482C10.243 4.06035 10.1302 4.35237 9.96367 4.61383C9.79713 4.8753 9.58017 5.10096 9.32546 5.27765C9.07074 5.45435 8.78338 5.57853 8.48015 5.64294C8.17692 5.70736 7.86389 5.71072 7.55935 5.65284C7.2548 5.59495 6.96484 5.47697 6.70639 5.30579C6.44794 5.13461 6.22618 4.91366 6.05406 4.65584C5.88194 4.39802 5.7629 4.10849 5.7039 3.80415C5.6449 3.49982 5.64712 3.18678 5.71043 2.88332C6.60002 3.42349 7.37527 3.72799 8.18319 3.83882C8.86919 3.93216 9.54878 3.88199 10.2955 3.75482ZM6.21852 1.82632C6.48557 1.51079 6.83162 1.27183 7.22128 1.13387C7.61095 0.9959 8.03026 0.963873 8.43636 1.04106C8.84246 1.11824 9.22078 1.30187 9.53265 1.57318C9.84453 1.84448 10.0788 2.19374 10.2115 2.58523C9.47528 2.71649 8.89836 2.75907 8.34128 2.68265C7.71127 2.59632 7.06261 2.35132 6.21794 1.82632M5.95835 6.24975C4.36235 6.24975 3.09884 7.22392 2.28859 8.40226C1.4725 9.59051 1 11.1311 1 12.6507C1 13.4621 1.37625 14.4036 1.64167 14.9957C1.80255 15.352 1.97769 15.7017 2.16667 16.0439V20.8331C2.16667 21.1426 2.28959 21.4393 2.50838 21.6581C2.72717 21.8769 3.02392 21.9998 3.33334 21.9998C3.64276 21.9998 3.93951 21.8769 4.1583 21.6581C4.3771 21.4393 4.50001 21.1426 4.50001 20.8331V14.1504C4.67035 12.7458 5.07051 11.4729 5.52843 10.4323L5.91168 11.9239C5.97614 12.1745 6.12214 12.3967 6.32669 12.5553C6.53125 12.7139 6.78275 12.8 7.04161 12.8H10.0417C10.3511 12.8 10.6479 12.6771 10.8667 12.4583C11.0855 12.2395 11.2084 11.9428 11.2084 11.6333C11.2084 11.3239 11.0855 11.0272 10.8667 10.8084C10.6479 10.5896 10.3511 10.4667 10.0417 10.4667H7.94636L7.08886 7.12592C7.02438 6.87512 6.87829 6.65291 6.67362 6.49428C6.46894 6.33565 6.2173 6.24962 5.95835 6.24975ZM19.0834 7.99975C19.7022 7.99975 20.2957 7.75392 20.7333 7.31633C21.1709 6.87875 21.4167 6.28525 21.4167 5.66641C21.4167 5.04757 21.1709 4.45408 20.7333 4.01649C20.2957 3.5789 19.7022 3.33307 19.0834 3.33307C18.4646 3.33307 17.8711 3.5789 17.4335 4.01649C16.9959 4.45408 16.7501 5.04757 16.7501 5.66641C16.7501 6.28525 16.9959 6.87875 17.4335 7.31633C17.8711 7.75392 18.4646 7.99975 19.0834 7.99975Z" fill="white"/>
<path d="M10.2955 3.75482L11.281 3.924L11.52 2.53187L10.1276 2.76902L10.2955 3.75482ZM5.71043 2.88332L6.22946 2.02856L5.02039 1.2944L4.73151 2.67909L5.71043 2.88332ZM8.18319 3.83882L8.04728 4.82954L8.04838 4.82969L8.18319 3.83882ZM10.2115 2.58523L10.387 3.56971L11.5318 3.36561L11.1585 2.26428L10.2115 2.58523ZM8.34128 2.68265L8.47718 1.69193L8.47704 1.69191L8.34128 2.68265ZM5.95835 6.24975L5.95835 7.24975L5.95885 7.24975L5.95835 6.24975ZM2.28859 8.40226L1.46459 7.83566L1.46427 7.83612L2.28859 8.40226ZM1.64167 14.9957L0.729156 15.4048L0.730263 15.4072L1.64167 14.9957ZM2.16667 16.0439H3.16667V15.7862L3.04208 15.5606L2.16667 16.0439ZM4.50001 14.1504L3.50728 14.0301L3.50001 14.09V14.1504H4.50001ZM5.52843 10.4323L6.49697 10.1834L5.77751 7.38331L4.61313 10.0295L5.52843 10.4323ZM5.91168 11.9239L4.94314 12.1727L4.94318 12.1729L5.91168 11.9239ZM7.04161 12.8L7.0416 13.8H7.04161V12.8ZM7.94636 10.4667L6.97776 10.7153L7.17062 11.4667H7.94636V10.4667ZM7.08886 7.12592L8.05746 6.8773L8.05736 6.87692L7.08886 7.12592ZM19.0834 3.33307L19.0834 2.33307L19.0834 3.33307ZM10.2955 3.75482L9.30987 3.58564C9.27989 3.76026 9.21543 3.92716 9.12024 4.0766L9.96367 4.61383L10.8071 5.15107C11.045 4.77758 11.2061 4.36044 11.281 3.924L10.2955 3.75482ZM9.96367 4.61383L9.12024 4.0766C9.02506 4.22603 8.90106 4.35501 8.75548 4.456L9.32546 5.27765L9.89544 6.09931C10.2593 5.84691 10.5692 5.52456 10.8071 5.15107L9.96367 4.61383ZM9.32546 5.27765L8.75548 4.456C8.6099 4.55698 8.44566 4.62796 8.27236 4.66477L8.48015 5.64294L8.68795 6.62112C9.12111 6.5291 9.53159 6.35171 9.89544 6.09931L9.32546 5.27765ZM8.48015 5.64294L8.27236 4.66477C8.09905 4.70159 7.92014 4.70351 7.74608 4.67043L7.55935 5.65284L7.37262 6.63525C7.80765 6.71794 8.25479 6.71313 8.68795 6.62112L8.48015 5.64294ZM7.55935 5.65284L7.74608 4.67043C7.57202 4.63734 7.4063 4.56991 7.25858 4.47208L6.70639 5.30579L6.1542 6.13951C6.52338 6.38403 6.93758 6.55256 7.37262 6.63525L7.55935 5.65284ZM6.70639 5.30579L7.25858 4.47208C7.11087 4.37424 6.98413 4.24796 6.88575 4.1006L6.05406 4.65584L5.22236 5.21107C5.46823 5.57937 5.78501 5.89499 6.1542 6.13951L6.70639 5.30579ZM6.05406 4.65584L6.88575 4.1006C6.78738 3.95325 6.71934 3.78777 6.68563 3.61383L5.7039 3.80415L4.72218 3.99447C4.80646 4.4292 4.97649 4.84278 5.22236 5.21107L6.05406 4.65584ZM5.7039 3.80415L6.68563 3.61383C6.65191 3.4399 6.65317 3.26098 6.68936 3.08754L5.71043 2.88332L4.73151 2.67909C4.64107 3.11258 4.6379 3.55974 4.72218 3.99447L5.7039 3.80415ZM5.71043 2.88332L5.19141 3.73808C6.16189 4.32736 7.06726 4.6951 8.04728 4.82954L8.18319 3.83882L8.3191 2.8481C7.68328 2.76088 7.03815 2.51961 6.22946 2.02856L5.71043 2.88332ZM8.18319 3.83882L8.04838 4.82969C8.87249 4.94182 9.66246 4.87703 10.4633 4.74063L10.2955 3.75482L10.1276 2.76902C9.4351 2.88695 8.8659 2.92249 8.318 2.84795L8.18319 3.83882ZM6.21852 1.82632L6.98182 2.47236C7.13448 2.29199 7.33229 2.15539 7.55504 2.07652L7.22128 1.13387L6.88752 0.191209C6.33094 0.388274 5.83667 0.729591 5.45522 1.18027L6.21852 1.82632ZM7.22128 1.13387L7.55504 2.07652C7.77779 1.99766 8.01749 1.97935 8.24963 2.02347L8.43636 1.04106L8.62308 0.0586458C8.04303 -0.0516024 7.4441 -0.00585629 6.88752 0.191209L7.22128 1.13387ZM8.43636 1.04106L8.24963 2.02347C8.48178 2.06759 8.69804 2.17256 8.87633 2.32765L9.53265 1.57318L10.189 0.818703C9.74351 0.431183 9.20313 0.168894 8.62308 0.0586458L8.43636 1.04106ZM9.53265 1.57318L8.87633 2.32765C9.05461 2.48275 9.18851 2.68239 9.26436 2.90619L10.2115 2.58523L11.1585 2.26428C10.969 1.70508 10.6345 1.20622 10.189 0.818703L9.53265 1.57318ZM10.2115 2.58523L10.0359 1.60076C9.34753 1.72349 8.88701 1.74815 8.47718 1.69193L8.34128 2.68265L8.20538 3.67337C8.90971 3.76999 9.60303 3.70948 10.387 3.56971L10.2115 2.58523ZM8.34128 2.68265L8.47704 1.69191C8.02624 1.63013 7.51104 1.45262 6.74582 0.977001L6.21794 1.82632L5.69005 2.67563C6.61417 3.25001 7.39631 3.5625 8.20551 3.67339L8.34128 2.68265ZM5.95835 6.24975V5.24975C3.92097 5.24975 2.38733 6.49374 1.46459 7.83566L2.28859 8.40226L3.11258 8.96885C3.81035 7.9541 4.80372 7.24975 5.95835 7.24975V6.24975ZM2.28859 8.40226L1.46427 7.83612C0.529379 9.19737 0 10.9368 0 12.6507H1H2C2 11.3254 2.41562 9.98365 3.1129 8.96839L2.28859 8.40226ZM1 12.6507H0C0 13.6996 0.466471 14.8188 0.72916 15.4048L1.64167 14.9957L2.55418 14.5866C2.28603 13.9885 2 13.2246 2 12.6507H1ZM1.64167 14.9957L0.730263 15.4072C0.902174 15.7879 1.08933 16.1616 1.29127 16.5273L2.16667 16.0439L3.04208 15.5606C2.86605 15.2418 2.70292 14.9161 2.55307 14.5842L1.64167 14.9957ZM2.16667 16.0439H1.16667V20.8331H2.16667H3.16667V16.0439H2.16667ZM2.16667 20.8331H1.16667C1.16667 21.4078 1.39494 21.9589 1.80127 22.3652L2.50838 21.6581L3.21549 20.951C3.18423 20.9197 3.16667 20.8773 3.16667 20.8331H2.16667ZM2.50838 21.6581L1.80127 22.3652C2.20761 22.7715 2.75871 22.9998 3.33334 22.9998V21.9998V20.9998C3.28914 20.9998 3.24674 20.9822 3.21549 20.951L2.50838 21.6581ZM3.33334 21.9998V22.9998C3.90798 22.9998 4.45908 22.7715 4.86541 22.3652L4.1583 21.6581L3.4512 20.951C3.41994 20.9822 3.37755 20.9998 3.33334 20.9998V21.9998ZM4.1583 21.6581L4.86541 22.3652C5.27174 21.9589 5.50001 21.4078 5.50001 20.8331H4.50001H3.50001C3.50001 20.8773 3.48245 20.9197 3.4512 20.951L4.1583 21.6581ZM4.50001 20.8331H5.50001V14.1504H4.50001H3.50001V20.8331H4.50001ZM4.50001 14.1504L5.49274 14.2708C5.64952 12.978 6.01905 11.8002 6.44374 10.835L5.52843 10.4323L4.61313 10.0295C4.12198 11.1457 3.69118 12.5136 3.50728 14.0301L4.50001 14.1504ZM5.52843 10.4323L4.55989 10.6811L4.94314 12.1727L5.91168 11.9239L6.88022 11.675L6.49697 10.1834L5.52843 10.4323ZM5.91168 11.9239L4.94318 12.1729C5.06288 12.6384 5.33402 13.051 5.71391 13.3456L6.32669 12.5553L6.93948 11.7651C6.91025 11.7424 6.8894 11.7107 6.88019 11.6749L5.91168 11.9239ZM6.32669 12.5553L5.71391 13.3456C6.0938 13.6401 6.56088 13.8 7.0416 13.8L7.04161 12.8L7.04161 11.8C7.00463 11.8 6.9687 11.7877 6.93948 11.7651L6.32669 12.5553ZM7.04161 12.8V13.8H10.0417V12.8V11.8H7.04161V12.8ZM10.0417 12.8V13.8C10.6163 13.8 11.1674 13.5717 11.5738 13.1654L10.8667 12.4583L10.1596 11.7512C10.1283 11.7825 10.0859 11.8 10.0417 11.8V12.8ZM10.8667 12.4583L11.5738 13.1654C11.9801 12.7591 12.2084 12.208 12.2084 11.6333H11.2084H10.2084C10.2084 11.6776 10.1908 11.7199 10.1596 11.7512L10.8667 12.4583ZM11.2084 11.6333H12.2084C12.2084 11.0587 11.9801 10.5076 11.5738 10.1013L10.8667 10.8084L10.1596 11.5155C10.1908 11.5468 10.2084 11.5891 10.2084 11.6333H11.2084ZM10.8667 10.8084L11.5738 10.1013C11.1674 9.69495 10.6163 9.46668 10.0417 9.46668V10.4667V11.4667C10.0859 11.4667 10.1283 11.4842 10.1596 11.5155L10.8667 10.8084ZM10.0417 10.4667V9.46668H7.94636V10.4667V11.4667H10.0417V10.4667ZM7.94636 10.4667L8.91496 10.2181L8.05746 6.8773L7.08886 7.12592L6.12025 7.37454L6.97776 10.7153L7.94636 10.4667ZM7.08886 7.12592L8.05736 6.87692C7.93761 6.41116 7.66631 5.99847 7.2862 5.70387L6.67362 6.49428L6.06103 7.28468C6.09027 7.30734 6.11114 7.33909 6.12035 7.37492L7.08886 7.12592ZM6.67362 6.49428L7.2862 5.70387C6.90609 5.40927 6.43876 5.24951 5.95785 5.24975L5.95835 6.24975L5.95885 7.24975C5.99584 7.24973 6.03179 7.26202 6.06103 7.28468L6.67362 6.49428ZM19.0834 7.99975V8.99975C19.9675 8.99975 20.8153 8.64856 21.4404 8.02344L20.7333 7.31633L20.0262 6.60923C19.7762 6.85928 19.437 6.99975 19.0834 6.99975V7.99975ZM20.7333 7.31633L21.4404 8.02344C22.0655 7.39832 22.4167 6.55047 22.4167 5.66641H21.4167H20.4167C20.4167 6.02004 20.2763 6.35918 20.0262 6.60923L20.7333 7.31633ZM21.4167 5.66641H22.4167C22.4167 4.78235 22.0655 3.93451 21.4404 3.30938L20.7333 4.01649L20.0262 4.7236C20.2763 4.97365 20.4167 5.31279 20.4167 5.66641H21.4167ZM20.7333 4.01649L21.4404 3.30938C20.8153 2.68426 19.9675 2.33307 19.0834 2.33307L19.0834 3.33307L19.0834 4.33307C19.437 4.33307 19.7762 4.47355 20.0262 4.7236L20.7333 4.01649ZM19.0834 3.33307L19.0834 2.33307C18.1993 2.33307 17.3515 2.68426 16.7264 3.30938L17.4335 4.01649L18.1406 4.7236C18.3906 4.47355 18.7298 4.33307 19.0834 4.33307L19.0834 3.33307ZM17.4335 4.01649L16.7264 3.30938C16.1012 3.93451 15.7501 4.78235 15.7501 5.66641H16.7501H17.7501C17.7501 5.31279 17.8905 4.97365 18.1406 4.7236L17.4335 4.01649ZM16.7501 5.66641H15.7501C15.7501 6.55047 16.1012 7.39832 16.7264 8.02344L17.4335 7.31633L18.1406 6.60923C17.8905 6.35918 17.7501 6.02004 17.7501 5.66641H16.7501ZM17.4335 7.31633L16.7264 8.02344C17.3515 8.64856 18.1993 8.99975 19.0834 8.99975V7.99975V6.99975C18.7298 6.99975 18.3906 6.85928 18.1406 6.60923L17.4335 7.31633Z" fill="#7C3AED" mask="url(#path-1-outside-1_10_332)"/>
<path d="M15.6718 7.52625C16.025 7.46454 16.3889 7.51731 16.7099 7.67957C17.0504 7.85171 17.322 8.1353 17.4785 8.48328L18.8906 11.6219H20.833C21.2749 11.6219 21.6991 11.7978 22.0117 12.1102C22.3242 12.4228 22.5 12.8469 22.5 13.2889C22.4999 13.7309 22.3242 14.1551 22.0117 14.4677C21.6991 14.7801 21.2749 14.9559 20.833 14.9559H17.8125C17.4913 14.9559 17.1768 14.8627 16.9072 14.6884C16.6376 14.5139 16.4236 14.2654 16.2919 13.9725L15.9228 13.1512C15.8938 13.2463 15.8673 13.3409 15.8447 13.4364C15.7591 13.7976 15.7123 14.1931 15.7021 14.6649C15.7922 14.6986 15.886 14.7329 15.9834 14.7665H15.9824C16.4812 14.938 16.9983 15.0828 17.4287 15.1981L17.6445 15.2557H17.6455L17.9882 15.3485H17.9892L18.2294 15.4198L18.2363 15.4218L18.2412 15.4227H18.2402C18.2748 15.434 18.4813 15.4978 18.6796 15.619H18.6787C18.9378 15.7762 19.1113 15.9844 19.1435 16.0223L19.1494 16.0282C19.2113 16.1014 19.2715 16.1796 19.3251 16.2528C19.4338 16.3979 19.5584 16.5785 19.6845 16.7665L20.1025 17.4012C20.2496 17.6287 20.4023 17.8665 20.5507 18.1005C20.8527 18.5769 21.1503 19.0564 21.4472 19.536L21.4501 19.535L21.665 19.8846L21.7119 19.9598L21.9746 20.3866L21.9062 20.4276C21.9181 20.475 21.9298 20.5228 21.9375 20.5712C21.9718 20.7872 21.9629 21.0079 21.9121 21.2206C21.8612 21.4333 21.769 21.6343 21.6406 21.8114C21.512 21.9886 21.3496 22.1393 21.163 22.2538C20.9765 22.3683 20.7689 22.445 20.5527 22.4794C20.3367 22.5137 20.116 22.5048 19.9033 22.454C19.6906 22.4031 19.4895 22.3109 19.3125 22.1825C19.1353 22.054 18.9846 21.8915 18.8701 21.705V21.704L18.7763 21.5516L17.7353 19.8846H17.7343C17.4672 19.4614 17.1947 19.0412 16.9169 18.6249V18.6239C16.8833 18.5737 16.8506 18.5281 16.8212 18.4852L16.8056 18.4813H16.8046L16.5673 18.4169C16.2091 18.3229 15.8537 18.2187 15.5 18.1093V22.4999H13.333V18.4169H7.91695V22.4999H5.74995V15.6669H11.7558C11.6526 15.417 11.583 15.1284 11.583 14.8046C11.583 12.1469 12.2571 10.374 13.163 9.21863L13.3466 8.99597C13.7423 8.53518 14.2198 8.15159 14.7548 7.86414L14.7587 7.86218C14.8927 7.79155 15.0179 7.73707 15.1289 7.69226L15.1191 7.64246L15.6015 7.53894L15.6474 7.52625H15.6718Z" fill="white" stroke="#7C3AED"/>
<path d="M11.2083 1.08304C11.6946 1.08304 12.0498 1.40909 12.2561 1.75296C12.4684 2.10681 12.5832 2.56358 12.5833 3.04105C12.5833 3.51869 12.4685 3.97616 12.2561 4.33011C12.0498 4.67394 11.6945 5.00003 11.2083 5.00003C10.7221 5.00003 10.3668 4.67394 10.1604 4.33011C9.94808 3.97616 9.8333 3.51869 9.8333 3.04105C9.83335 2.56358 9.94817 2.10681 10.1604 1.75296C10.3668 1.40909 10.722 1.08304 11.2083 1.08304Z" fill="white" stroke="#7C3AED"/>
</svg>
