<svg width="29" height="29" viewBox="0 0 29 29" fill="none" xmlns="http://www.w3.org/2000/svg">
<path d="M12.8366 3.80428C12.7641 4.2262 12.6084 4.62947 12.3784 4.99053C12.1484 5.3516 11.8488 5.66323 11.4971 5.90724C11.1453 6.15124 10.7485 6.32273 10.3297 6.41168C9.91099 6.50064 9.47871 6.50529 9.05815 6.42535C8.63758 6.34541 8.23716 6.18249 7.88025 5.9461C7.52334 5.70971 7.2171 5.40458 6.97941 5.04854C6.74172 4.6925 6.57734 4.29267 6.49587 3.8724C6.41439 3.45213 6.41746 3.01984 6.50488 2.60077C7.73336 3.34672 8.80395 3.76722 9.91965 3.92028C10.867 4.04917 11.8055 3.97989 12.8366 3.80428ZM7.20653 1.1411C7.57531 0.705377 8.05318 0.375388 8.59129 0.184863C9.1294 -0.00566169 9.70845 -0.0498897 10.2693 0.0566997C10.8301 0.163289 11.3525 0.416873 11.7832 0.791533C12.2139 1.16619 12.5374 1.64849 12.7206 2.18913C11.704 2.37038 10.9073 2.42919 10.138 2.32366C9.26795 2.20444 8.37217 1.8661 7.20572 1.1411M6.84725 7.24965C4.64324 7.24965 2.8984 8.59493 1.77948 10.2222C0.652502 11.8631 0 13.9906 0 16.089C0 17.2096 0.519585 18.5097 0.886114 19.3274C1.10828 19.8194 1.35014 20.3024 1.61112 20.775V27.3886C1.61112 27.8159 1.78086 28.2257 2.083 28.5278C2.38515 28.83 2.79494 28.9997 3.22223 28.9997C3.64953 28.9997 4.05932 28.83 4.36146 28.5278C4.66361 28.2257 4.83335 27.8159 4.83335 27.3886V18.1601C5.06857 16.2204 5.62119 14.4626 6.25355 13.0255L6.7828 15.0853C6.87181 15.4315 7.07343 15.7383 7.35591 15.9573C7.6384 16.1764 7.98571 16.2953 8.34317 16.2953H12.4862C12.9135 16.2953 13.3232 16.1255 13.6254 15.8234C13.9275 15.5212 14.0973 15.1114 14.0973 14.6841C14.0973 14.2569 13.9275 13.8471 13.6254 13.5449C13.3232 13.2428 12.9135 13.073 12.4862 13.073H9.59259L8.40842 8.4596C8.31938 8.11327 8.11764 7.80639 7.83499 7.58733C7.55234 7.36827 7.20485 7.24947 6.84725 7.24965ZM24.9723 9.66633C25.8269 9.66633 26.6465 9.32684 27.2508 8.72256C27.8551 8.11827 28.1945 7.29868 28.1945 6.44409C28.1945 5.5895 27.8551 4.76992 27.2508 4.16563C26.6465 3.56134 25.8269 3.22186 24.9723 3.22186C24.1177 3.22186 23.2981 3.56134 22.6938 4.16563C22.0896 4.76992 21.7501 5.5895 21.7501 6.44409C21.7501 7.29868 22.0896 8.11827 22.6938 8.72256C23.2981 9.32684 24.1177 9.66633 24.9723 9.66633Z" fill="#0B0B0B"/>
<path fill-rule="evenodd" clip-rule="evenodd" d="M20.3177 9.70259C20.6783 9.62497 21.0545 9.67341 21.3837 9.83981C21.7128 10.0062 21.9749 10.2805 22.1262 10.6169L24.2593 15.3592H27.3889C27.8162 15.3592 28.226 15.529 28.5281 15.8311C28.8303 16.1333 29 16.543 29 16.9703C29 17.3976 28.8303 17.8074 28.5281 18.1096C28.226 18.4117 27.8162 18.5815 27.3889 18.5815H23.2169C22.9064 18.5814 22.6026 18.4917 22.3419 18.3231C22.0813 18.1544 21.8749 17.9141 21.7476 17.6309L20.5924 15.0636C20.2243 15.7419 19.9818 16.3662 19.8279 17.0146C19.6668 17.6945 19.5959 18.4365 19.6088 19.3403C19.869 19.449 20.1574 19.5578 20.4659 19.6641C21.178 19.909 21.9103 20.1136 22.5088 20.2739L22.8069 20.3537L23.2806 20.481C23.3824 20.5086 23.4837 20.5384 23.5842 20.5704L23.5915 20.5728C23.6406 20.5889 23.8557 20.6558 24.0547 20.7774C24.3141 20.9345 24.4945 21.1504 24.5316 21.1939L24.5364 21.1995C24.6113 21.2881 24.6863 21.3848 24.7539 21.4774C24.8933 21.6635 25.0576 21.9012 25.23 22.1581C25.5796 22.6769 26.0058 23.3399 26.415 23.9851C26.9077 24.7627 27.3957 25.5433 27.8787 26.3269L28.014 26.546L26.6397 27.3886L28.0132 26.5452C28.1239 26.7256 28.198 26.926 28.2313 27.135C28.2645 27.344 28.2563 27.5575 28.207 27.7633C28.1578 27.9691 28.0685 28.1632 27.9442 28.3345C27.8199 28.5058 27.6631 28.651 27.4827 28.7617C27.3024 28.8724 27.102 28.9465 26.893 28.9798C26.684 29.013 26.4705 29.0048 26.2646 28.9555C26.0588 28.9063 25.8647 28.8169 25.6934 28.6927C25.5221 28.5684 25.377 28.4116 25.2663 28.2312L25.1358 28.0178C24.6594 27.2458 24.1788 26.4764 23.6938 25.7098C23.3218 25.1205 22.9423 24.5359 22.5555 23.9561C22.4476 23.795 22.3536 23.6581 22.2736 23.5453L22.0045 23.4736L21.6735 23.385C20.9134 23.1857 20.1603 22.9605 19.4155 22.7099L19.3333 22.6809V28.9997H17.7222V23.3608H8.86106V28.9997H7.24994V20.9442H16.1377C16.065 20.8712 15.996 20.7949 15.9306 20.7154C15.6108 20.3271 15.3055 19.768 15.3055 19.064C15.3055 15.2763 16.327 12.9248 17.5716 11.495C18.0632 10.9216 18.6567 10.4442 19.322 10.0868C19.5742 9.95392 19.7949 9.8637 19.9657 9.8049C20.0729 9.76692 20.1821 9.73466 20.2927 9.70823L20.3056 9.70501L20.3121 9.7034H20.3145C20.3145 9.7034 20.3177 9.70259 20.6568 11.2775L20.3177 9.70259Z" fill="#0B0B0B"/>
<path d="M14.0972 4.83294C14.7642 4.83294 15.3055 3.93071 15.3055 2.81904C15.3055 1.70737 14.7642 0.805145 14.0972 0.805145C13.4302 0.805145 12.8889 1.70737 12.8889 2.81904C12.8889 3.93071 13.4302 4.83294 14.0972 4.83294Z" fill="#0B0B0B"/>
</svg>
