<svg width="21" height="18" viewBox="0 0 21 18" fill="none" xmlns="http://www.w3.org/2000/svg">
<path d="M3.56797 11.0819H12.452V16.9229H3.56797V11.0819Z" fill="#7C3AED"/>
<path d="M16.8173 12.0705V13.9182H14.4101V12.0705H16.8173ZM16.8173 2.18771V4.03537H14.4101V2.18771H16.8173Z" fill="white" stroke="#7C3AED"/>
<path d="M14.2273 12.0363V2.3107H2.0836V12.5989H2.02719V16.3662H5.68024V13.1051H10.7405V16.4212H14.6191V12.0363H14.2273Z" fill="#7C3AED"/>
<path d="M18.5007 1.20508C19.174 1.20508 19.7253 1.75358 19.7253 2.42969V14.3086C19.7253 14.9834 19.1754 15.5352 18.5007 15.5352H16.5857C16.2524 15.5351 15.969 15.4004 15.7752 15.2549C15.6768 15.181 15.5875 15.0942 15.5183 15.001C15.4653 14.9296 15.363 14.774 15.363 14.5742V2.16406C15.363 1.96336 15.4669 1.80758 15.5193 1.7373C15.5885 1.64459 15.6769 1.558 15.7752 1.48438C15.9688 1.3393 16.2524 1.20514 16.5857 1.20508H18.5007Z" fill="white" stroke="#7C3AED"/>
<rect x="1.61258" y="1.92288" width="13" height="14" fill="#7C3AED"/>
<path d="M14.0674 0.5L14.25 0.509766C15.1545 0.601943 15.8662 1.36877 15.8662 2.29883V17.4229H9.83105V15.3467H9.8291V15.0908C9.76754 15.0752 9.68936 15.0594 9.59375 15.0439C9.23492 14.9859 8.73727 14.9541 8.22656 14.9541C7.71606 14.9541 7.21913 14.9859 6.86035 15.0439C6.76398 15.0595 6.68486 15.0751 6.62305 15.0908V17.4229H0.5V2.29883C0.5 1.3087 1.3087 0.5 2.29883 0.5H14.0674ZM11.623 15.0449H13.2178V14.1592H11.623V15.0449ZM3.20215 15.0449H4.79883V14.1592H3.20215V15.0449ZM12.4082 11.835H13.2393V10.626H12.4082V11.835ZM9.34473 11.835H10.1738V10.626H9.34473V11.835ZM6.28125 11.835H7.11133V10.626H6.28125V11.835ZM3.21777 11.835H4.0459V10.626H3.21777V11.835ZM12.4082 8.3252H13.2393V7.11719H12.4082V8.3252ZM9.34473 8.3252H10.1738V7.11719H9.34473V8.3252ZM3.21777 8.3252H4.0459V7.11719H3.21777V8.3252ZM6.28125 8.32422H7.11133V7.11719H6.28125V8.32422ZM12.4082 4.81543H13.2393V3.60645H12.4082V4.81543ZM9.34473 4.81543H10.1738V3.60645H9.34473V4.81543ZM6.28125 4.81543H7.11133V3.60645H6.28125V4.81543ZM3.21777 4.81543H4.0459V3.60645H3.21777V4.81543Z" fill="white" stroke="#7C3AED"/>
</svg>
