<svg width="18" height="22" viewBox="0 0 18 22" fill="none" xmlns="http://www.w3.org/2000/svg">
<path d="M10.6719 12.8809C10.9052 12.8809 11.1364 12.8939 11.3574 12.915L11.334 13.4131H11.8066V15.6113L11.4785 15.7314C10.7793 15.9885 10.2676 16.6817 10.2676 17.5078V18.7773C10.2676 18.9524 10.4046 19.0713 10.5371 19.0713C10.6696 19.0712 10.8066 18.9524 10.8066 18.7773V17.5078C10.8067 16.8099 11.3624 16.2139 12.0762 16.2139C12.7897 16.2141 13.3447 16.8101 13.3447 17.5078V18.7773C13.3447 18.9523 13.4818 19.0711 13.6143 19.0713C13.7468 19.0713 13.8838 18.9524 13.8838 18.7773V17.5078C13.8837 16.6803 13.3712 15.9843 12.6748 15.7314L12.3447 15.6123V13.0537L13.0225 13.3105C15.641 14.3012 17.5 16.8887 17.5 19.9131C17.4998 20.7734 16.8175 21.4998 15.9463 21.5H2.05371C1.18247 21.4998 0.500204 20.7734 0.5 19.9131C0.5 16.8891 2.35862 14.2974 4.97363 13.3066L5.65137 13.0498V16.4092L5.36328 16.5439C4.90442 16.7591 4.57427 17.2451 4.57422 17.8213C4.57422 18.6115 5.19207 19.2266 5.9209 19.2266C6.64952 19.2263 7.2666 18.6113 7.2666 17.8213C7.26655 17.2503 6.93737 16.7625 6.47559 16.543L6.18945 16.4072V12.957L6.64355 12.915C6.86727 12.8941 7.09446 12.8809 7.32812 12.8809H10.6719ZM9.00195 0.5C9.67594 0.500004 10.343 0.636715 10.9648 0.902344C11.5867 1.16803 12.1506 1.55758 12.625 2.04688C13.0993 2.53612 13.4755 3.11572 13.7314 3.75293C13.9873 4.39012 14.1181 5.07289 14.1182 5.76172C14.1182 6.45054 13.9873 7.13331 13.7314 7.77051C13.4755 8.40778 13.0993 8.98826 12.625 9.47754C12.1507 9.96669 11.5866 10.3555 10.9648 10.6211C10.343 10.8868 9.67599 11.0234 9.00195 11.0234C8.32793 11.0234 7.6609 10.8868 7.03906 10.6211C6.41737 10.3555 5.8532 9.96667 5.37891 9.47754C4.90456 8.98826 4.52837 8.40778 4.27246 7.77051C4.0166 7.1333 3.88574 6.45055 3.88574 5.76172C3.88577 5.07289 4.01659 4.39012 4.27246 3.75293C4.52837 3.11572 4.90461 2.53611 5.37891 2.04688C5.85326 1.55759 6.41724 1.16803 7.03906 0.902344C7.66086 0.636725 8.32798 0.5 9.00195 0.5Z" fill="white" stroke="#7C3AED"/>
</svg>
