<svg width="20" height="20" viewBox="0 0 20 20" fill="none" xmlns="http://www.w3.org/2000/svg">
<path d="M9.99941 16.707C10.9454 16.707 11.8094 16.604 12.5974 16.426L10.8404 14.669C10.5674 14.69 10.2904 14.707 9.99941 14.707C4.64841 14.707 2.57541 10.861 2.07341 9.707C2.44972 8.86546 2.95888 8.0899 3.58141 7.41L2.18341 6.012C0.645408 7.679 0.0624075 9.358 0.0514075 9.391C-0.0171358 9.59643 -0.0171358 9.81857 0.0514075 10.024C0.0724075 10.09 2.36641 16.707 9.99941 16.707ZM9.99941 2.707C8.16241 2.707 6.65341 3.103 5.39541 3.688L1.70641 0L0.292407 1.414L18.2924 19.414L19.7064 18L16.3874 14.681C19.0014 12.73 19.9344 10.066 19.9484 10.024C20.0169 9.81857 20.0169 9.59643 19.9484 9.391C19.9264 9.324 17.6324 2.707 9.99941 2.707ZM14.9714 13.265L12.6914 10.985C12.8814 10.595 12.9994 10.166 12.9994 9.707C12.9994 8.066 11.6404 6.707 9.99941 6.707C9.54041 6.707 9.11141 6.825 8.72241 7.016L6.91441 5.208C7.90712 4.86816 8.95018 4.69877 9.99941 4.707C15.3504 4.707 17.4234 8.553 17.9254 9.707C17.6234 10.399 16.7594 12.049 14.9714 13.265Z" fill="black"/>
</svg>
