<svg width="25" height="26" viewBox="0 0 25 26" fill="none" xmlns="http://www.w3.org/2000/svg">
<path d="M11.8945 0.5C12.9888 0.5 14.0393 0.930952 14.8145 1.69922C15.5897 2.46768 16.0263 3.51095 16.0264 4.59961V11.2998H18.6523L16.7393 9.40332C16.4183 9.08494 16.2374 8.6522 16.2373 8.2002C16.2373 7.748 16.4181 7.31455 16.7393 6.99609H16.7402C17.0612 6.67821 17.4954 6.50008 17.9473 6.5C18.3993 6.5 18.8342 6.67802 19.1553 6.99609L23.998 11.7969C24.319 12.1153 24.5 12.548 24.5 13C24.5 13.452 24.319 13.8847 23.998 14.2031L19.1553 19.0039L19.1494 19.0098C18.8265 19.3189 18.3944 19.4892 17.9473 19.4854C17.5005 19.4814 17.0722 19.3036 16.7549 18.9893C16.4373 18.6744 16.2559 18.2469 16.252 17.7998C16.2481 17.3528 16.4214 16.9228 16.7334 16.6025L16.7393 16.5967L18.6523 14.7002H16.0264V21.4004C16.0263 22.4891 15.5897 23.5323 14.8145 24.3008C14.0393 25.069 12.9888 25.5 11.8945 25.5H4.63184C3.53755 25.5 2.48706 25.0691 1.71191 24.3008C0.9367 23.5323 0.500104 22.4891 0.5 21.4004V4.59961C0.500104 3.51094 0.936701 2.46768 1.71191 1.69922C2.48706 0.930916 3.53755 0.5 4.63184 0.5H11.8945ZM9.47363 12.2998C9.28384 12.2998 9.10262 12.3751 8.96973 12.5068C8.83706 12.6384 8.76367 12.8158 8.76367 13C8.76367 13.1842 8.83706 13.3616 8.96973 13.4932C9.10262 13.6249 9.28384 13.7002 9.47363 13.7002H15.0264V12.2998H9.47363Z" fill="white" stroke="#7C3AED"/>
</svg>
