<svg width="29" height="29" viewBox="0 0 29 29" fill="none" xmlns="http://www.w3.org/2000/svg">
<path fill-rule="evenodd" clip-rule="evenodd" d="M2.1228 26.8772C4.2485 29 7.6647 29 14.5 29C21.3353 29 24.753 29 26.8758 26.8758C29 24.7544 29 21.3353 29 14.5C29 7.6647 29 4.24705 26.8758 2.1228C24.7544 0 21.3353 0 14.5 0C7.6647 0 4.24705 0 2.1228 2.1228C0 4.2485 0 7.6647 0 14.5C0 21.3353 0 24.7544 2.1228 26.8772ZM24.2875 20.3C24.2875 20.5884 24.1729 20.865 23.969 21.069C23.765 21.2729 23.4884 21.3875 23.2 21.3875H5.8C5.51158 21.3875 5.23497 21.2729 5.03102 21.069C4.82708 20.865 4.7125 20.5884 4.7125 20.3C4.7125 20.0116 4.82708 19.735 5.03102 19.531C5.23497 19.3271 5.51158 19.2125 5.8 19.2125H23.2C23.4884 19.2125 23.765 19.3271 23.969 19.531C24.1729 19.735 24.2875 20.0116 24.2875 20.3ZM23.2 15.5875C23.4884 15.5875 23.765 15.4729 23.969 15.269C24.1729 15.065 24.2875 14.7884 24.2875 14.5C24.2875 14.2116 24.1729 13.935 23.969 13.731C23.765 13.5271 23.4884 13.4125 23.2 13.4125H5.8C5.51158 13.4125 5.23497 13.5271 5.03102 13.731C4.82708 13.935 4.7125 14.2116 4.7125 14.5C4.7125 14.7884 4.82708 15.065 5.03102 15.269C5.23497 15.4729 5.51158 15.5875 5.8 15.5875H23.2ZM24.2875 8.7C24.2875 8.98842 24.1729 9.26503 23.969 9.46898C23.765 9.67292 23.4884 9.7875 23.2 9.7875H5.8C5.51158 9.7875 5.23497 9.67292 5.03102 9.46898C4.82708 9.26503 4.7125 8.98842 4.7125 8.7C4.7125 8.41158 4.82708 8.13497 5.03102 7.93102C5.23497 7.72708 5.51158 7.6125 5.8 7.6125H23.2C23.4884 7.6125 23.765 7.72708 23.969 7.93102C24.1729 8.13497 24.2875 8.41158 24.2875 8.7Z" fill="white"/>
</svg>
