<svg width="16" height="14" viewBox="0 0 16 14" fill="none" xmlns="http://www.w3.org/2000/svg">
<path d="M6.89648 0.5C9.78274 0.50021 12.2323 2.37327 13.0234 4.94824L13.3555 6.0293L13.9316 5.05566L14.5342 4.03516C14.5679 3.97803 14.6233 3.93648 14.6875 3.91992C14.7517 3.90339 14.8198 3.91357 14.877 3.94727C14.9341 3.98101 14.9756 4.03631 14.9922 4.10059C15.0085 4.16449 14.9992 4.23217 14.9658 4.28906L13.3359 7.04395V7.04492C13.3027 7.10126 13.2478 7.14223 13.1846 7.15918C13.1215 7.17598 13.0539 7.16779 12.9971 7.13574L10.1758 5.54492C10.1472 5.52878 10.1218 5.50633 10.1016 5.48047C10.0814 5.45465 10.0664 5.42512 10.0576 5.39355C10.0488 5.36193 10.0459 5.32848 10.0498 5.2959C10.0538 5.26342 10.064 5.23162 10.0801 5.20312C10.0962 5.17457 10.1187 5.15011 10.1445 5.12988C10.1704 5.10964 10.1998 5.09476 10.2314 5.08594C10.2631 5.07712 10.2965 5.07417 10.3291 5.07812C10.3616 5.08212 10.3934 5.09233 10.4219 5.1084L11.8936 5.93848L12.9072 6.50977L12.624 5.38086C11.9937 2.86924 9.67574 1.00021 6.89746 1C3.63433 1 1 3.57997 1 6.75C1 9.91997 3.63429 12.5 6.89648 12.5C6.96261 12.5001 7.02647 12.5265 7.07324 12.5732C7.11997 12.6201 7.14648 12.6838 7.14648 12.75C7.14648 12.8162 7.11997 12.8799 7.07324 12.9268C7.02647 12.9735 6.96261 12.9999 6.89648 13C3.36886 13 0.5 10.2072 0.5 6.75C0.5 3.29276 3.36886 0.5 6.89648 0.5Z" fill="white" stroke="white"/>
</svg>
