<svg width="22" height="22" viewBox="0 0 22 22" fill="none" xmlns="http://www.w3.org/2000/svg">
<path d="M11.6953 0.5L11.9072 0.508789C12.3944 0.55158 12.8304 0.743722 13.1973 1.08203C13.5542 1.4112 13.791 1.81212 13.9004 2.27344L13.9395 2.47461L13.9404 2.48242L14.126 3.85156C14.2695 3.91823 14.409 3.99088 14.543 4.07227C14.6655 4.14675 14.7854 4.22582 14.9043 4.30664L16.2012 3.76367C16.7292 3.53344 17.2761 3.5103 17.8145 3.7041C18.34 3.8933 18.755 4.23553 19.0469 4.71484L19.0537 4.72656L20.2217 6.76465C20.5222 7.25832 20.612 7.80052 20.4824 8.3623C20.357 8.90586 20.0703 9.36127 19.6348 9.71387L19.6211 9.72363L18.5156 10.5566C18.517 10.5923 18.5195 10.6277 18.5195 10.6631V11.3369C18.5195 11.378 18.5178 11.4191 18.5146 11.46L19.5967 12.2764L19.6025 12.2812L19.6094 12.2861C20.0449 12.6387 20.3316 13.0941 20.457 13.6377C20.5867 14.1995 20.4978 14.7417 20.1973 15.2354L20.1963 15.2344L19.002 17.2773L18.9971 17.2852C18.7053 17.7645 18.2902 18.1067 17.7646 18.2959C17.2236 18.4907 16.6739 18.4658 16.1436 18.2324V18.2314L14.8994 17.6934C14.7762 17.7756 14.6509 17.8562 14.5215 17.9316C14.3914 18.0075 14.2595 18.075 14.1279 18.1387L13.9404 19.5176L13.9395 19.5264C13.8554 20.0723 13.6041 20.541 13.1973 20.917C12.7783 21.3041 12.2689 21.4999 11.6953 21.5H9.34473C8.77156 21.4999 8.26256 21.304 7.84375 20.917C7.43697 20.5411 7.18539 20.0721 7.10059 19.5264L7.09961 19.5176L6.91309 18.1475C6.77004 18.0809 6.63135 18.008 6.49805 17.9268C6.37519 17.8518 6.25363 17.7737 6.13379 17.6924L4.83789 18.2363L4.83691 18.2354C4.30932 18.4651 3.76352 18.4895 3.22559 18.2959C2.70003 18.1067 2.28499 17.7645 1.99316 17.2852L1.98633 17.2734L0.811523 15.2236L0.8125 15.2227C0.517543 14.732 0.429013 14.1952 0.557617 13.6377C0.683052 13.0941 0.969711 12.6387 1.40527 12.2861L1.41895 12.2764L2.52344 11.4424C2.52205 11.4071 2.51953 11.3719 2.51953 11.3369V10.6621C2.51953 10.6271 2.52204 10.5919 2.52344 10.5566L1.41895 9.72363L1.40527 9.71387C0.969711 9.36127 0.683052 8.90586 0.557617 8.3623C0.428015 7.80052 0.51786 7.25833 0.818359 6.76465L1.98633 4.72656L1.99316 4.71484C2.28499 4.23554 2.70003 3.8933 3.22559 3.7041C3.7634 3.51051 4.30943 3.5341 4.83691 3.76367H4.83789L6.13672 4.30762C6.26074 4.22477 6.38728 4.14438 6.51758 4.06836C6.64765 3.99249 6.77965 3.92397 6.91113 3.86035L7.09961 2.48242L7.10059 2.47363C7.1847 1.92733 7.43606 1.45797 7.84375 1.08203C8.26291 0.695527 8.77205 0.500062 9.34473 0.5H11.6953ZM10.5703 8C9.71708 8 9.01645 8.29114 8.4375 8.87695C7.85559 9.4659 7.56974 10.1643 7.57031 11C7.57097 11.8361 7.85689 12.535 8.43848 13.124C9.0167 13.7097 9.71709 14 10.5703 14C11.4043 13.9999 12.1019 13.7106 12.6914 13.1211C13.2808 12.5316 13.5703 11.834 13.5703 11C13.5703 10.166 13.2808 9.46841 12.6914 8.87891C12.1019 8.28945 11.4043 8.00007 10.5703 8Z" fill="white" stroke="#7C3AED"/>
</svg>
