<svg width="31" height="25" viewBox="0 0 31 25" fill="none" xmlns="http://www.w3.org/2000/svg">
<path fill-rule="evenodd" clip-rule="evenodd" d="M9.3 0.000784384C7.65566 0.000784384 6.07866 0.659244 4.91594 1.83131C3.75321 3.00337 3.1 4.59304 3.1 6.25059C3.1 7.90814 3.75321 9.4978 4.91594 10.6699C6.07866 11.8419 7.65566 12.5004 9.3 12.5004C10.9443 12.5004 12.5213 11.8419 13.6841 10.6699C14.8468 9.4978 15.5 7.90814 15.5 6.25059C15.5 4.59304 14.8468 3.00337 13.6841 1.83131C12.5213 0.659244 10.9443 0.000784384 9.3 0.000784384ZM6.2 14.0628C4.55566 14.0628 2.97866 14.7213 1.81594 15.8934C0.653213 17.0654 0 18.6551 0 20.3126V21.8751C0 22.7039 0.326606 23.4987 0.907969 24.0847C1.48933 24.6708 2.27783 25 3.1 25H15.5C16.3222 25 17.1107 24.6708 17.692 24.0847C18.2734 23.4987 18.6 22.7039 18.6 21.8751V20.3126C18.6 18.6551 17.9468 17.0654 16.7841 15.8934C15.6213 14.7213 14.0443 14.0628 12.4 14.0628H6.2ZM17.4375 10.7895C18.1784 9.4458 18.6 7.89897 18.6 6.25059C18.6003 4.66226 18.2003 3.09989 17.4375 1.71011C18.3176 0.870647 19.4225 0.309543 20.6155 0.0961391C21.8085 -0.117264 23.0374 0.0263864 24.1503 0.509338C25.2632 0.99229 26.2114 1.79337 26.8775 2.81359C27.5437 3.8338 27.8988 5.02842 27.8988 6.24981C27.8988 7.4712 27.5437 8.66582 26.8775 9.68603C26.2114 10.7062 25.2632 11.5073 24.1503 11.9903C23.0374 12.4732 21.8085 12.6169 20.6155 12.4035C19.4225 12.1901 18.3176 11.629 17.4375 10.7895ZM20.8723 25C21.3993 24.0813 21.7015 23.0141 21.7015 21.8751V20.3126C21.7044 18.0061 20.8608 15.78 19.3331 14.0628H24.8C26.4443 14.0628 28.0213 14.7213 29.1841 15.8934C30.3468 17.0654 31 18.6551 31 20.3126V21.8751C31 22.7039 30.6734 23.4987 30.092 24.0847C29.5107 24.6708 28.7222 25 27.9 25H20.8723Z" fill="#0B0B0B"/>
</svg>
